# xmcd CD database file
#
# Track frame offsets:
#	150
#	14492
#	29555
#	46280
#	61992
#
# Disc length: 1093 seconds
#
# Revision: 0
# Processed by: cddbd v1.5.1PL2 Copyright (c) Steve Scherf et al.
# Submitted via: CDex 1.51
#
DISCID=3d044305
DTITLE=Namusoke - Survive
DYEAR=2004
DGENRE=Urban soul
TTITLE0=Survive
TTITLE1=Information
TTITLE2=Do Something Different
TTITLE3=Murder Time
TTITLE4=Survive (Wighnomy Brothers Remix)
EXTD=YEAR: 2004
EXTT0=
EXTT1=
EXTT2=
EXTT3=
EXTT4=
PLAYORDER=
